<?xml version="1.0" encoding="UTF-8"?>
<svg id="Camada_1" xmlns="http://www.w3.org/2000/svg" version="1.1" viewBox="0 0 1025.2 693">
  <!-- Generator: Adobe Illustrator 30.2.1, SVG Export Plug-In . SVG Version: 2.1.1 Build 1)  -->
  <defs>
    <style>
      .st0 {
        fill: #c0a96c;
      }
    </style>
  </defs>
  <path class="st0" d="M1.2,47.2c24.5,7.9,49,15.7,73.5,23.7,162.2,53.3,324.3,106.6,486.4,160.3,7.1,2.3,14.3,5.9,19.8,10.9,146.7,131.7,293.1,263.7,439.5,395.6,1.9,1.7,3.8,3.5,4.8,8-5.2-1.6-10.5-3-15.6-4.7-174.6-57.5-349.1-115.5-524.1-171.9-26.3-8.5-46.5-23.3-66.3-41.3-70.3-63.8-141.1-127.1-211.6-190.6C141.1,177.3,74.7,117.5,8.3,57.7c-2.9-2.6-5.6-5.3-8.3-7.9.3-.8.8-1.7,1.1-2.5h0ZM581,327.6c-10.2-37.1-49.9-60.6-86.6-51.1-36.4,9.4-59.6,51.6-48.9,88.9,10.6,37.1,51.2,60.5,87.2,50.5,36.2-10.2,58.6-50.9,48.4-88.3h0Z"/>
  <path class="st0" d="M183.8,269.9c6.7,6,13.9,11,19,17.6,2.8,3.6,3.5,10.2,2.9,15.2-6.5,57.9-.3,114.5,23.9,167.6,46.7,102.7,124.6,167.2,233.5,188.1,88.9,17,170-3.8,241.2-59.9,10.6-8.4,19.6-11.5,31.6-4.9,3.3,1.8,7.1,2.6,10.8,4-64.5,75.5-223.8,136.6-377,60.6-162.6-80.8-217.6-262.8-186-388.3Z"/>
  <path class="st0" d="M279.9,94.3C359.1,7.6,529.6-42.6,681.5,48.2c150.7,90.1,189.5,268.8,160.9,374.7-6.7-6-13.9-11-19-17.7-2.8-3.7-3.1-10.3-2.6-15.3,10-98.9-16.9-185.9-83.9-259.4C628.6,11.7,448.6-5.5,325.1,92.3c-17.2,13.5-29.5,10.2-45.1,2h0Z"/>
</svg>